<?xml version="1.0" standalone="no"?>
<!DOCTYPE svg PUBLIC "-//W3C//DTD SVG 20010904//EN"
 "http://www.w3.org/TR/2001/REC-SVG-20010904/DTD/svg10.dtd">
<svg version="1.0" xmlns="http://www.w3.org/2000/svg"
 width="300.000000pt" height="300.000000pt" viewBox="0 0 300.000000 300.000000"
 preserveAspectRatio="xMidYMid meet">
<metadata>
Created by potrace 1.14, written by Peter Selinger 2001-2017
</metadata>
<g transform="translate(0.000000,300.000000) scale(0.100000,-0.100000)"
fill="#000000" stroke="none">
<path d="M97 2983 c3 -7 6 -13 8 -13 2 0 5 6 8 13 3 8 -1 14 -8 14 -7 0 -11
-6 -8 -14z"/>
<path d="M153 2983 c0 -7 4 -13 8 -13 4 0 9 6 12 13 3 8 0 14 -7 14 -7 0 -13
-6 -13 -14z"/>
<path d="M255 2990 c-3 -5 -1 -10 4 -10 6 0 11 5 11 10 0 6 -2 10 -4 10 -3 0
-8 -4 -11 -10z"/>
<path d="M355 2990 c-3 -6 1 -7 9 -4 18 7 21 14 7 14 -6 0 -13 -4 -16 -10z"/>
<path d="M570 2977 c-243 -63 -432 -232 -520 -464 -16 -43 -34 -105 -40 -138
-13 -74 -13 -1852 0 -1860 5 -3 7 4 5 15 -2 11 0 20 6 20 5 0 9 -9 9 -20 0
-11 5 -20 10 -20 6 0 10 -6 10 -14 0 -8 13 -39 29 -70 115 -217 282 -345 526
-401 49 -11 218 -14 915 -12 957 3 894 -1 1053 77 186 92 341 277 388 465 7
29 15 42 23 38 6 -4 4 2 -4 12 -9 11 -10 16 -2 11 10 -6 12 166 9 881 -2 868
-3 889 -23 953 -73 226 -212 388 -414 483 -138 64 -90 61 -1035 63 -855 3
-861 2 -945 -19z"/>
</g>
</svg>
